<svg width="32" height="33" viewBox="0 0 32 33" fill="none" xmlns="http://www.w3.org/2000/svg">
<rect width="32" height="32" rx="5" fill="#1A1A1A"/>
<path d="M20.52 22.848C20.328 23.344 20.024 23.736 19.608 24.024C19.208 24.312 18.728 24.456 18.168 24.456C17.624 24.456 16.8 24.12 15.696 23.448C14.608 22.776 13.736 22.344 13.08 22.152C12.648 22.728 12.16 23.208 11.616 23.592C11.072 23.976 10.696 24.168 10.488 24.168C10.328 24.168 10.008 23.824 9.528 23.136C9.048 22.432 8.808 21.928 8.808 21.624C8.808 21.448 9.056 21.184 9.552 20.832C10.064 20.48 10.6 20.24 11.16 20.112C11.56 19.136 11.976 17.696 12.408 15.792C12.84 13.872 13.176 11.896 13.416 9.864C13.416 9.608 13.328 9.304 13.152 8.952C12.992 8.584 12.824 8.288 12.648 8.064L12.408 7.728L12.48 7.368C13.44 7.096 15.016 6.96 17.208 6.96C17.416 7.312 17.52 7.848 17.52 8.568C17.52 9.288 17.312 10.36 16.896 11.784C16.48 13.208 15.904 14.92 15.168 16.92C14.448 18.904 14.032 20.08 13.92 20.448C13.984 20.464 14.184 20.52 14.52 20.616C14.856 20.712 15.072 20.776 15.168 20.808C15.28 20.824 15.488 20.872 15.792 20.952C16.096 21.016 16.336 21.064 16.512 21.096C16.688 21.112 16.92 21.136 17.208 21.168C17.704 21.248 18.168 21.288 18.6 21.288C19.048 21.288 19.368 21.176 19.56 20.952L20.232 19.704L21.024 19.896C21.024 20.936 20.856 21.92 20.52 22.848Z" fill="white"/>
</svg>
